<?xml version="1.0" encoding="UTF-8"?>
<svg version="1.1" xmlns="http://www.w3.org/2000/svg" width="500" height="500">
<path d="M0 0 C165 0 330 0 500 0 C500 165 500 330 500 500 C335 500 170 500 0 500 C0 335 0 170 0 0 Z " fill="#000000" transform="translate(0,0)"/>
<path d="M0 0 C1.08096954 0.00007553 2.16193909 0.00015106 3.27566528 0.00022888 C5.03195755 0.00797081 5.03195755 0.00797081 6.82373047 0.01586914 C8.019487 0.01728409 9.21524353 0.01869904 10.44723511 0.02015686 C14.27848784 0.02576876 18.10968281 0.03832331 21.94091797 0.05102539 C24.53336504 0.05603886 27.12581303 0.06060203 29.71826172 0.06469727 C36.08416695 0.07574206 42.45003833 0.0924918 48.81591797 0.11352539 C44.5269076 10.87024313 44.5269076 10.87024313 40.81591797 14.11352539 C36.19034693 15.1836992 31.77751731 14.87485515 27.06591797 14.55102539 C24.61313331 14.4379177 22.15999983 14.33206329 19.70654297 14.23461914 C18.08280762 14.13298462 18.08280762 14.13298462 16.42626953 14.02929688 C13.65255165 13.82093535 13.65255165 13.82093535 11.81591797 16.11352539 C7.54554588 28.0454474 6.10018794 40.87428067 4.23876953 53.34301758 C3.89144914 55.61864792 3.52049011 57.88577914 3.12060547 60.15258789 C1.86708332 67.40889216 1.05873369 74.75324879 1.81591797 82.11352539 C4.37728018 84.6748876 5.48153127 84.41019396 9.04248047 84.52758789 C10.07373047 84.56625977 11.10498047 84.60493164 12.16748047 84.64477539 C13.24771484 84.67571289 14.32794922 84.70665039 15.44091797 84.73852539 C16.52888672 84.77719727 17.61685547 84.81586914 18.73779297 84.85571289 C21.43032962 84.95018786 24.12285554 85.0357497 26.81591797 85.11352539 C27.06116211 85.63446777 27.30640625 86.15541016 27.55908203 86.69213867 C29.55692623 90.82807688 31.61003495 94.43893937 34.56591797 97.98852539 C37.81591797 101.90764304 37.81591797 101.90764304 37.81591797 104.11352539 C31.55371983 104.13899416 25.29153517 104.15644199 19.02929688 104.16845703 C16.90136211 104.17346888 14.77343076 104.18028011 12.64550781 104.18896484 C9.5773026 104.20116875 6.50914313 104.20678532 3.44091797 104.21118164 C2.02637329 104.21892357 2.02637329 104.21892357 0.58325195 104.2268219 C-15.04432248 104.22813294 -15.04432248 104.22813294 -20.64892578 98.92993164 C-23.16738885 95.95007076 -24.66247237 92.67596696 -26.18408203 89.11352539 C-26.70035156 88.25114258 -26.70035156 88.25114258 -27.22705078 87.37133789 C-33.44050217 72.71266483 -29.09005055 51.14529326 -26.18408203 36.11352539 C-26.03156982 35.32284668 -25.87905762 34.53216797 -25.72192383 33.7175293 C-24.84860853 29.48271618 -23.82966554 25.81724586 -21.74658203 21.98852539 C-20.22817936 19.12487122 -18.81177326 16.31574054 -17.62158203 13.30102539 C-15.64107839 8.90947384 -13.85169077 5.90942956 -9.43408203 3.80102539 C-8.69158203 3.57415039 -7.94908203 3.34727539 -7.18408203 3.11352539 C-7.18408203 2.45352539 -7.18408203 1.79352539 -7.18408203 1.11352539 C-4.63469388 -0.16116868 -2.85367205 -0.00663645 0 0 Z " fill="#F4C206" transform="translate(78.18408203125,196.886474609375)"/>
<path d="M0 0 C1.48831242 0.00667405 2.97660807 0.01863442 4.46484375 0.03515625 C5.22345703 0.03966797 5.98207031 0.04417969 6.76367188 0.04882812 C8.64326246 0.06064945 10.52281274 0.07858547 12.40234375 0.09765625 C12.59570312 1.20625 12.7890625 2.31484375 12.98828125 3.45703125 C13.25097864 4.92063101 13.51401742 6.38416952 13.77734375 7.84765625 C13.96683594 8.94207031 13.96683594 8.94207031 14.16015625 10.05859375 C14.9164591 14.2645347 14.9164591 14.2645347 16.46484375 18.22265625 C17.8007892 20.89454714 17.83405935 23.38396214 18.02734375 26.34765625 C18.10210937 27.4253125 18.176875 28.50296875 18.25390625 29.61328125 C18.32738281 30.84304687 18.32738281 30.84304687 18.40234375 32.09765625 C19.06234375 32.09765625 19.72234375 32.09765625 20.40234375 32.09765625 C20.50417969 31.57042969 20.60601562 31.04320312 20.7109375 30.5 C23.41001716 21.12184187 30.42504652 7.07495348 37.40234375 0.09765625 C40.09889229 0.02446004 42.76925833 0.00523088 45.46484375 0.03515625 C46.22345703 0.03966797 46.98207031 0.04417969 47.76367188 0.04882812 C49.64326246 0.06064945 51.52281274 0.07858547 53.40234375 0.09765625 C52.53687719 12.12308632 51.26136691 24.11386182 48.97265625 35.95703125 C48.02152009 41.19479475 47.24430444 46.46144042 46.45532227 51.72583008 C46.33342529 52.52013428 46.21152832 53.31443848 46.0859375 54.1328125 C45.97822021 54.84832275 45.87050293 55.56383301 45.75952148 56.30102539 C45.40234375 58.09765625 45.40234375 58.09765625 44.40234375 60.09765625 C40.44234375 60.09765625 36.48234375 60.09765625 32.40234375 60.09765625 C33.11767077 53.3914654 33.97496058 46.71506969 34.90234375 40.03515625 C35.77453385 33.72689022 36.62802791 27.41875379 37.40234375 21.09765625 C33.37269056 27.60603081 29.71980076 34.19851999 26.40234375 41.09765625 C25.74234375 41.09765625 25.08234375 41.09765625 24.40234375 41.09765625 C24.11359375 42.04640625 23.82484375 42.99515625 23.52734375 43.97265625 C22.40234375 47.09765625 22.40234375 47.09765625 20.40234375 49.09765625 C18.52734375 49.3984375 18.52734375 49.3984375 16.40234375 49.41015625 C15.70109375 49.42691406 14.99984375 49.44367188 14.27734375 49.4609375 C13.65859375 49.34105469 13.03984375 49.22117187 12.40234375 49.09765625 C10.39022619 46.07947991 9.84626179 44.26473957 9.11328125 40.7734375 C8.89414063 39.74541016 8.675 38.71738281 8.44921875 37.65820312 C8.2275 36.58634766 8.00578125 35.51449219 7.77734375 34.41015625 C7.43316406 32.7849707 7.43316406 32.7849707 7.08203125 31.12695312 C6.5163358 28.45168504 5.95668761 25.77529546 5.40234375 23.09765625 C5.07234375 23.09765625 4.74234375 23.09765625 4.40234375 23.09765625 C2.42234375 35.30765625 0.44234375 47.51765625 -1.59765625 60.09765625 C-5.55765625 60.09765625 -9.51765625 60.09765625 -13.59765625 60.09765625 C-13.25313107 50.39155027 -12.43310023 41.22142226 -10.3515625 31.71875 C-9.60708114 28.14292503 -9.07371813 24.59312688 -8.59765625 20.97265625 C-5.77314339 0.15670856 -5.77314339 0.15670856 0 0 Z " fill="#F5C206" transform="translate(99.59765625,215.90234375)"/>
<path d="M0 0 C1.26457031 0.04640625 2.52914062 0.0928125 3.83203125 0.140625 C5.74048828 0.19476563 5.74048828 0.19476563 7.6875 0.25 C8.66332031 0.29640625 9.63914062 0.3428125 10.64453125 0.390625 C10.95765793 8.91462902 10.02186019 16.98705724 8.64453125 25.390625 C8.35835938 27.15212891 8.35835938 27.15212891 8.06640625 28.94921875 C7.60211922 31.76478795 7.1286847 34.57841456 6.64453125 37.390625 C9.28453125 37.390625 11.92453125 37.390625 14.64453125 37.390625 C14.31453125 41.020625 13.98453125 44.650625 13.64453125 48.390625 C10.67453125 48.390625 7.70453125 48.390625 4.64453125 48.390625 C4.66515625 49.4425 4.68578125 50.494375 4.70703125 51.578125 C4.64453125 55.390625 4.64453125 55.390625 3.64453125 60.390625 C-0.64546875 60.390625 -4.93546875 60.390625 -9.35546875 60.390625 C-8.69546875 56.430625 -8.03546875 52.470625 -7.35546875 48.390625 C-16.59546875 48.390625 -25.83546875 48.390625 -35.35546875 48.390625 C-35.35546875 36.16840278 -35.35546875 36.16840278 -30.86328125 31.53515625 C-29.35546875 30.390625 -29.35546875 30.390625 -27.35546875 30.390625 C-26.92234375 29.4934375 -26.92234375 29.4934375 -26.48046875 28.578125 C-25.35546875 26.390625 -25.35546875 26.390625 -23.35546875 23.390625 C-22.69546875 23.390625 -22.03546875 23.390625 -21.35546875 23.390625 C-21.08597412 22.80345703 -20.81647949 22.21628906 -20.53881836 21.61132812 C-19.3561355 19.39187623 -18.08454326 17.73816673 -16.421875 15.859375 C-15.85533203 15.21355469 -15.28878906 14.56773437 -14.70507812 13.90234375 C-14.11533203 13.23847656 -13.52558594 12.57460937 -12.91796875 11.890625 C-11.75139982 10.56877022 -10.58599856 9.24588386 -9.421875 7.921875 C-8.87394287 7.30795898 -8.32601074 6.69404297 -7.76147461 6.06152344 C-6.23531079 4.3392197 -6.23531079 4.3392197 -4.89453125 1.9375 C-3.35546875 0.390625 -3.35546875 0.390625 0 0 Z " fill="#F7C405" transform="translate(389.35546875,215.609375)"/>
<path d="M0 0 C3.85377027 2.42333152 6.76497566 6.07682633 8.7890625 10.125 C9.68727696 20.38820454 8.37243477 27.82691667 1.9765625 35.9375 C-2.04729751 40.35043553 -7.45982947 43.92426126 -13.4765625 44.36328125 C-14.79140625 44.38777344 -16.10625 44.41226563 -17.4609375 44.4375 C-18.76546875 44.47488281 -20.07 44.51226562 -21.4140625 44.55078125 C-26.49419525 43.98109558 -29.36055394 42.01841573 -32.890625 38.40625 C-37.32445957 31.79896711 -37.07324891 25.33203428 -35.8046875 17.671875 C-33.76263335 9.98730282 -28.22506522 3.55172278 -21.3984375 -0.4375 C-14.68475813 -3.31290688 -6.65810312 -2.84955854 0 0 Z " fill="#F3C106" transform="translate(190.2109375,232.875)"/>
<path d="M0 0 C4.21932884 2.74746995 6.40238632 5.20715896 8 10 C8.76799141 21.46401719 8.76799141 21.46401719 7 25 C-3.23 25 -13.46 25 -24 25 C-21.5797509 30.63106761 -21.5797509 30.63106761 -19 33 C-16.83261966 33.28232191 -16.83261966 33.28232191 -14.375 33.1875 C-13.48296875 33.17589844 -12.5909375 33.16429687 -11.671875 33.15234375 C-9.25763247 33.01468957 -6.99977128 32.68299401 -4.625 32.25 C-1 32 -1 32 1.5 33.8125 C3 36 3 36 3 38 C-6.33386487 43.13286186 -14.83666177 46.33981032 -25.453125 43.296875 C-30.14288361 41.24727679 -32.56844329 38.57132662 -35 34 C-37.48167521 26.55497437 -36.14410627 19.03358255 -33 12 C-26.31453581 -0.17709549 -13.22298071 -6.29665748 0 0 Z " fill="#EDBC09" transform="translate(303,233)"/>
<path d="M0 0 C4.62 0 9.24 0 14 0 C13.7834375 1.39992187 13.566875 2.79984375 13.34375 4.2421875 C13.06211796 6.1197344 12.78088956 7.99734188 12.5 9.875 C12.28537109 11.25171875 12.28537109 11.25171875 12.06640625 12.65625 C10.14162853 23.01353314 10.14162853 23.01353314 12 33 C16.33050371 33.42455919 18.31030775 33.53642731 21.8125 30.8125 C25.91731576 25.53487973 26.45905164 20.46476852 27.0625 14 C27.21802563 12.41646633 27.37552448 10.83312501 27.53515625 9.25 C27.600979 8.55390625 27.66680176 7.8578125 27.73461914 7.140625 C28.03202266 4.74169759 28.52593 2.37035002 29 0 C33.29 0 37.58 0 42 0 C42.15235142 4.18966404 42.13653028 7.87613726 41.08984375 11.94140625 C39.66622058 18.06058791 39.09267659 24.26022295 38.4375 30.5 C38.19014442 32.84416979 37.93905627 35.18794983 37.68359375 37.53125 C37.57587646 38.55798828 37.46815918 39.58472656 37.35717773 40.64257812 C37 43 37 43 36 44 C33.98035801 44.07244053 31.95832876 44.08377188 29.9375 44.0625 C28.83277344 44.05347656 27.72804688 44.04445313 26.58984375 44.03515625 C25.73519531 44.02355469 24.88054687 44.01195312 24 44 C23.67 42.68 23.34 41.36 23 40 C22.34257812 40.54140625 22.34257812 40.54140625 21.671875 41.09375 C16.42572586 44.93239571 12.17773137 45.70678483 5.71484375 45.4296875 C2.15219242 44.86581463 0.33978993 43.72975492 -2 41 C-8.76233256 30.85650116 -1.93616036 11.08970421 0 0 Z " fill="#F0BE07" transform="translate(411,232)"/>
<path d="M0 0 C2.10505484 0.70949384 4.16246186 1.46073193 6.20703125 2.328125 C6.33203125 10.078125 6.33203125 10.078125 5.20703125 12.328125 C4.57796875 12.18375 3.94890625 12.039375 3.30078125 11.890625 C-2.19863494 10.69798053 -7.16963818 10.1198535 -12.79296875 10.328125 C-13.45296875 11.978125 -14.11296875 13.628125 -14.79296875 15.328125 C-14.24769531 15.42609375 -13.70242188 15.5240625 -13.140625 15.625 C-6.49594765 16.94257705 0.61505201 18.42196646 5.26953125 23.640625 C6.80747921 28.04940916 6.93355104 31.63291217 5.08203125 35.953125 C1.54240906 40.43664644 -2.34484122 43.59427961 -7.79296875 45.328125 C-16.1985048 46.13761671 -23.77499502 46.38106609 -30.79296875 41.328125 C-31.578125 39.359375 -31.578125 39.359375 -31.79296875 37.328125 C-30.35546875 34.578125 -30.35546875 34.578125 -28.79296875 32.328125 C-27.9421875 32.65425781 -27.09140625 32.98039062 -26.21484375 33.31640625 C-22.63395547 34.3751392 -19.76456107 34.56278804 -16.04296875 34.515625 C-14.91375 34.50917969 -13.78453125 34.50273437 -12.62109375 34.49609375 C-9.84328122 34.51719719 -9.84328122 34.51719719 -7.79296875 33.328125 C-7.14083583 31.30349245 -7.14083583 31.30349245 -6.79296875 29.328125 C-7.50582031 29.14636719 -8.21867187 28.96460938 -8.953125 28.77734375 C-22.66968108 25.17744007 -22.66968108 25.17744007 -26.73046875 21.640625 C-28.61036861 17.54907824 -28.56005753 13.58829731 -27.13671875 9.39453125 C-24.70917631 4.52898282 -21.6233913 2.653884 -16.79296875 0.328125 C-12.01190127 -2.06240874 -5.06140044 -1.21756766 0 0 Z " fill="#F0BE08" transform="translate(343.79296875,231.671875)"/>
<path d="M0 0 C4.62 0 9.24 0 14 0 C15.35104309 4.05312927 16.28546585 7.03319893 16.81640625 11.109375 C16.94080078 12.02847656 17.06519531 12.94757813 17.19335938 13.89453125 C17.31517578 14.83683594 17.43699219 15.77914062 17.5625 16.75 C17.81065142 18.64104111 18.06180466 20.5316915 18.31640625 22.421875 C18.42412354 23.25299805 18.53184082 24.08412109 18.64282227 24.94042969 C18.90787788 27.05559168 18.90787788 27.05559168 20 29 C21.41702633 25.85432856 22.83355333 22.70843249 24.25 19.5625 C24.84361328 18.24475586 24.84361328 18.24475586 25.44921875 16.90039062 C27.98215527 11.27394966 30.49826281 5.64038454 33 0 C37.29 0 41.58 0 46 0 C42.52020683 8.69948292 38.48444877 17.14741429 34.5 25.625 C33.94880493 26.80570068 33.94880493 26.80570068 33.38647461 28.01025391 C30.80703388 33.47454297 27.97997791 38.74306714 25 44 C20.05 44 15.1 44 10 44 C7.4531665 35.48128104 5.37625183 27.1597899 3.7265625 18.421875 C2.95924494 14.80805679 1.91728713 11.45412003 0.55078125 8.02734375 C0 6 0 6 0 0 Z " fill="#F2BF07" transform="translate(202,232)"/>
<path d="M0 0 C4.29 0 8.58 0 13 0 C13.225093 5.85241794 12.53709795 11.16736317 11.50390625 16.92578125 C11.03437047 19.79031347 10.72955165 22.60764919 10.5 25.5 C10.0259047 31.40464147 9.02917625 37.16800126 8 43 C3.38 43 -1.24 43 -6 43 C-5.02916365 33.77134389 -3.84436432 24.67159932 -2.04248047 15.56640625 C-1.02965382 10.38073383 -0.41129793 5.26461353 0 0 Z " fill="#F3C007" transform="translate(251,233)"/>
<path d="M0 0 C3.43285391 2.71840208 5.53207644 5.98868227 6.8515625 10.09375 C7.13483633 14.44252784 7.17497083 18.74639577 6.8515625 23.09375 C4.30591996 25.63939254 -2.48285858 24.42526462 -5.8984375 24.46875 C-7.54585938 24.52482422 -7.54585938 24.52482422 -9.2265625 24.58203125 C-17.16920292 24.66878339 -17.16920292 24.66878339 -20.02929688 22.98925781 C-21.4140625 21.6328125 -21.4140625 21.6328125 -23.1484375 19.09375 C-23.1484375 18.76375 -23.1484375 18.43375 -23.1484375 18.09375 C-16.8784375 18.09375 -10.6084375 18.09375 -4.1484375 18.09375 C-5.75376139 12.40072031 -5.75376139 12.40072031 -8.1484375 9.09375 C-10.7250878 8.88160727 -13.161667 9.09910348 -15.73828125 9.28125 C-18.69289091 9.05139382 -19.21157216 8.21271379 -21.1484375 6.09375 C-22.1384375 6.09375 -23.1284375 6.09375 -24.1484375 6.09375 C-18.25148712 -1.39697075 -9.4234263 -3.97497255 0 0 Z " fill="#FAC604" transform="translate(304.1484375,232.90625)"/>
<path d="M0 0 C2.875 1.375 2.875 1.375 5 4 C6.45000753 10.51334029 4.74066371 15.55934667 1.484375 21.1875 C-0.95200162 24.16244409 -3.25397342 24.89120446 -7 25.4375 C-10 25 -10 25 -12.375 23.125 C-14.68144652 18.68952593 -14.64542333 14.90364308 -14 10 C-11.63160197 3.26876349 -7.49344179 -1.24890696 0 0 Z " fill="#080702" transform="translate(181,242)"/>
<path d="M0 0 C9.24 0 18.48 0 28 0 C28 6.75 28 6.75 25.5 9.875 C24.80390625 10.76832031 24.80390625 10.76832031 24.09375 11.6796875 C23.7328125 12.11539063 23.371875 12.55109375 23 13 C22.37480469 12.84402344 21.74960938 12.68804687 21.10546875 12.52734375 C16.00595592 11.66138874 10.84935854 11.63983175 5.68554688 11.48242188 C4.85732422 11.44826172 4.02910156 11.41410156 3.17578125 11.37890625 C2.42208252 11.3538501 1.66838379 11.32879395 0.8918457 11.30297852 C-1 11 -1 11 -3 9 C-2.01 8.67 -1.02 8.34 0 8 C0 5.36 0 2.72 0 0 Z " fill="#FCC703" transform="translate(96,198)"/>
<path d="M0 0 C2 1.125 2 1.125 3 3 C3.73147268 7.11453382 3.14636774 8.75300444 1 12.375 C-2.50028011 15.4377451 -2.50028011 15.4377451 -6.125 15.625 C-10 15 -10 15 -12.0625 13.4375 C-13.42294024 9.90035538 -12.9721556 7.62938092 -12 4 C-8.83248645 -0.94132114 -5.40346192 -0.60038466 0 0 Z " fill="#ECBB09" transform="translate(265,213)"/>
<path d="M0 0 C1.0562208 3.16866239 0.954206 4.44758635 0.44140625 7.66796875 C0.30283203 8.56064453 0.16425781 9.45332031 0.02148438 10.37304688 C-0.20571289 11.76620117 -0.20571289 11.76620117 -0.4375 13.1875 C-0.58509766 14.12787109 -0.73269531 15.06824219 -0.88476562 16.03710938 C-1.25015224 18.35908237 -1.62424855 20.67968175 -2 23 C-6.62 23 -11.24 23 -16 23 C-14.40008864 19.80017727 -13.01162485 17.60251869 -10.8125 14.875 C-6.99728094 10.05788518 -3.47812798 5.06390062 0 0 Z " fill="#151105" transform="translate(386,230)"/>
<path d="M0 0 C0.33 0.66 0.66 1.32 1 2 C0.01 2 -0.98 2 -2 2 C-2 2.66 -2 3.32 -2 4 C-0.68 4.33 0.64 4.66 2 5 C1.195625 5.45375 0.39125 5.9075 -0.4375 6.375 C-3.08856572 7.74725665 -3.08856572 7.74725665 -4 10 C0.455 9.505 0.455 9.505 5 9 C4.67 9.66 4.34 10.32 4 11 C1.4375 11.625 1.4375 11.625 -1 12 C-1 13.65 -1 15.3 -1 17 C-3.64 17 -6.28 17 -9 17 C-9.33 16.34 -9.66 15.68 -10 15 C-10.66 15 -11.32 15 -12 15 C-12.33 15.66 -12.66 16.32 -13 17 C-13.99 16.67 -14.98 16.34 -16 16 C-13.37242811 9.29969169 -10.69572848 4.34786424 -4 1 C-1.6875 0.3125 -1.6875 0.3125 0 0 Z " fill="#EDBC0C" transform="translate(75,198)"/>
<path d="M0 0 C2.09375 0.48828125 2.09375 0.48828125 4.65625 2.67578125 C6.09375 5.48828125 6.09375 5.48828125 6.09375 10.48828125 C-0.17625 10.48828125 -6.44625 10.48828125 -12.90625 10.48828125 C-11.33791266 2.64659455 -7.91203161 -0.46153518 0 0 Z " fill="#171205" transform="translate(293.90625,240.51171875)"/>
<path d="M0 0 C0.04241723 2.33294775 0.04092937 4.66702567 0 7 C-1.8956539 8.8956539 -5.29489028 8.36630149 -7.87109375 8.5234375 C-10.38472371 8.82873755 -10.38472371 8.82873755 -12 12 C-12.66 9.69 -13.32 7.38 -14 5 C-13.01 5 -12.02 5 -11 5 C-11 3.68 -11 2.36 -11 1 C-7.27569643 0.30710631 -3.78916254 -0.11144596 0 0 Z " fill="#D5AB13" transform="translate(66,279)"/>
<path d="M0 0 C0.8971875 0.5259375 0.8971875 0.5259375 1.8125 1.0625 C0.52533353 2.06828589 -0.76738658 3.06696798 -2.0625 4.0625 C-2.78179687 4.619375 -3.50109375 5.17625 -4.2421875 5.75 C-6.1875 7.0625 -6.1875 7.0625 -8.1875 7.0625 C-7.8575 9.0425 -7.5275 11.0225 -7.1875 13.0625 C-8.8375 12.7325 -10.4875 12.4025 -12.1875 12.0625 C-12.24149736 10.60457116 -12.28029177 9.14607288 -12.3125 7.6875 C-12.34730469 6.46933594 -12.34730469 6.46933594 -12.3828125 5.2265625 C-12.1875 3.0625 -12.1875 3.0625 -10.1875 1.0625 C-8.53135343 0.68031233 -6.86292976 0.34854898 -5.1875 0.0625 C-2.1875 -0.9375 -2.1875 -0.9375 0 0 Z " fill="#FCC703" transform="translate(62.1875,260.9375)"/>
<path d="M0 0 C0.95486298 0.00444122 1.90972595 0.00888245 2.89352417 0.01345825 C4.51497849 0.01368484 4.51497849 0.01368484 6.16918945 0.01391602 C7.92548172 0.02939987 7.92548172 0.02939987 9.71725464 0.04519653 C11.51088943 0.04944138 11.51088943 0.04944138 13.34075928 0.05377197 C17.17208733 0.06499599 21.00318436 0.09010472 24.83444214 0.11550903 C27.42688669 0.12553596 30.01933489 0.1346623 32.61178589 0.14285278 C38.97775056 0.16494257 45.34357985 0.19844197 51.70944214 0.24050903 C51.04944214 1.89050903 50.38944214 3.54050903 49.70944214 5.24050903 C49.21444214 3.26050903 49.21444214 3.26050903 48.70944214 1.24050903 C31.21944214 1.57050903 13.72944214 1.90050903 -4.29055786 2.24050903 C-2.29055786 0.24050903 -2.29055786 0.24050903 0 0 Z " fill="#DBAC0D" transform="translate(75.29055786132813,196.75949096679688)"/>
<path d="M0 0 C1.98 0.66 3.96 1.32 6 2 C4.92598892 4.91517292 4.22189824 6.77810176 2 9 C-0.625 8.625 -0.625 8.625 -3 8 C-2.45276317 4.62537285 -1.9451 2.91765 0 0 Z " fill="#FCC901" transform="translate(315,264)"/>
<path d="M0 0 C0.763125 0.20625 1.52625 0.4125 2.3125 0.625 C2.6425 2.275 2.9725 3.925 3.3125 5.625 C1.0025 5.955 -1.3075 6.285 -3.6875 6.625 C-4.3475 4.975 -5.0075 3.325 -5.6875 1.625 C-2.6875 -0.375 -2.6875 -0.375 0 0 Z " fill="#1A1607" transform="translate(76.6875,289.375)"/>
<path d="M0 0 C0.33 0.66 0.66 1.32 1 2 C0.01 3.485 0.01 3.485 -1 5 C-1.66 5 -2.32 5 -3 5 C-3 7.97 -3 10.94 -3 14 C5.91 14 14.82 14 24 14 C24 14.33 24 14.66 24 15 C14.76 15 5.52 15 -4 15 C-4 4 -4 4 -2 1.3125 C-1.34 0.879375 -0.68 0.44625 0 0 Z " fill="#F3C01A" transform="translate(358,249)"/>
<path d="M0 0 C0.042721 1.66611905 0.04063832 3.33382885 0 5 C-1 6 -1 6 -2.84765625 6.09765625 C-4.8984375 6.06510417 -6.94921875 6.03255208 -9 6 C-9 4.68 -9 3.36 -9 2 C-5.86501708 0.14223235 -3.62528568 -0.20140476 0 0 Z " fill="#0D0B04" transform="translate(65,280)"/>
<path d="M0 0 C-0.33 1.65 -0.66 3.3 -1 5 C-3.31 5.33 -5.62 5.66 -8 6 C-8.33 4.35 -8.66 2.7 -9 1 C-5.8035914 -0.06546953 -3.34252724 -0.07427838 0 0 Z " fill="#0D0B04" transform="translate(64,267)"/>
<path d="M0 0 C1.43472656 -0.02126953 1.43472656 -0.02126953 2.8984375 -0.04296875 C5.65510017 0.19004428 7.27447395 0.77829836 9.625 2.1875 C8.50480469 2.23648438 7.38460937 2.28546875 6.23046875 2.3359375 C4.75778797 2.41097856 3.28513293 2.48652582 1.8125 2.5625 C1.07451172 2.5934375 0.33652344 2.624375 -0.42382812 2.65625 C-4.19393115 2.86096148 -6.17150741 3.05183827 -9.375 5.1875 C-10.365 5.8475 -11.355 6.5075 -12.375 7.1875 C-13.035 6.5275 -13.695 5.8675 -14.375 5.1875 C-5.40177634 0.03620494 -5.40177634 0.03620494 0 0 Z " fill="#B89516" transform="translate(178.375,230.8125)"/>
<path d="M0 0 C1.4540625 0.0309375 1.4540625 0.0309375 2.9375 0.0625 C3.2675 1.3825 3.5975 2.7025 3.9375 4.0625 C0.56652617 5.56071059 -1.26692119 6.0625 -5.0625 6.0625 C-3.98897059 0.08140756 -3.98897059 0.08140756 0 0 Z " fill="#241E08" transform="translate(70.0625,213.9375)"/>
<path d="M0 0 C2.33944736 0.28730055 4.6739143 0.61936779 7 1 C6 4 6 4 4 5 C1.6670134 5.04022391 -0.66706666 5.04320247 -3 5 C-1.125 1.125 -1.125 1.125 0 0 Z " fill="#151206" transform="translate(74,203)"/>
<path d="M0 0 C3.51098025 4.01254885 5.76537994 8.20983041 8 13 C5.50907189 14.24546405 4.58919267 13.7767578 2 13 C2.04125 11.88625 2.0825 10.7725 2.125 9.625 C2.41121859 5.95633975 2.41121859 5.95633975 0 4 C0 2.68 0 1.36 0 0 Z " fill="#DCB210" transform="translate(106,286)"/>
<path d="M0 0 C4.10553546 6.1583032 4.33093523 14.71942502 4 22 C2.015625 21.10546875 2.015625 21.10546875 0 19 C-0.52614217 15.76609364 -0.37422316 12.57813563 -0.25 9.3125 C-0.23195312 8.41982422 -0.21390625 7.52714844 -0.1953125 6.60742188 C-0.14817759 4.40386496 -0.08240657 2.20247399 0 0 Z " fill="#C09A15" transform="translate(216,235)"/>
<path d="M0 0 C1.4540625 0.0309375 1.4540625 0.0309375 2.9375 0.0625 C2.6075 1.7125 2.2775 3.3625 1.9375 5.0625 C0.2875 5.3925 -1.3625 5.7225 -3.0625 6.0625 C-3.44468767 4.40635343 -3.77645102 2.73792976 -4.0625 1.0625 C-3.0625 0.0625 -3.0625 0.0625 0 0 Z " fill="#120F04" transform="translate(62.0625,238.9375)"/>
<path d="M0 0 C2.31 0 4.62 0 7 0 C6.67 1.65 6.34 3.3 6 5 C4.35 5 2.7 5 1 5 C0.67 3.35 0.34 1.7 0 0 Z " fill="#211B07" transform="translate(61,227)"/>
<path d="M0 0 C0.66 0 1.32 0 2 0 C1.57379685 2.87687128 0.94316881 4.06571107 -1 6.3125 C-3.420096 9.56450399 -3.68707499 12.01020606 -4 16 C-4.33 16 -4.66 16 -5 16 C-5.45376195 9.53389228 -4.62353082 6.38039425 -1 1 C-0.67 0.67 -0.34 0.34 0 0 Z " fill="#DDB116" transform="translate(321,235)"/>
<path d="M0 0 C1.98 0 3.96 0 6 0 C6 1.32 6 2.64 6 4 C3.69 4.33 1.38 4.66 -1 5 C-0.67 3.35 -0.34 1.7 0 0 Z " fill="#050401" transform="translate(57,253)"/>
<path d="M0 0 C1.98 0.66 3.96 1.32 6 2 C3 3 3 3 0 2 C0 4.31 0 6.62 0 9 C-0.99 8.67 -1.98 8.34 -3 8 C-2.45276317 4.62537285 -1.9451 2.91765 0 0 Z " fill="#D4AA1A" transform="translate(315,264)"/>
<path d="M0 0 C0.33 0 0.66 0 1 0 C1.04898438 0.66386719 1.09796875 1.32773438 1.1484375 2.01171875 C1.55003697 6.75474702 2.13028597 10.59281694 4 15 C3.67 15.99 3.34 16.98 3 18 C-0.81636773 12.27544841 -0.29282789 6.70250505 0 0 Z " fill="#CDA317" transform="translate(154,253)"/>
<path d="M0 0 C1.65 0.99 3.3 1.98 5 3 C3.68 3.99 2.36 4.98 1 6 C-0.32 4.68 -1.64 3.36 -3 2 C-2.01 1.34 -1.02 0.68 0 0 Z " fill="#F0BC0C" transform="translate(299,240)"/>
<path d="M0 0 C0.33 0 0.66 0 1 0 C1.25 6.625 1.25 6.625 -1 10 C-1.33 9.34 -1.66 8.68 -2 8 C-2.99 8 -3.98 8 -5 8 C-4.19185349 6.66402348 -3.37836819 5.331275 -2.5625 4 C-2.11003906 3.2575 -1.65757812 2.515 -1.19140625 1.75 C-0.79824219 1.1725 -0.40507812 0.595 0 0 Z " fill="#46380B" transform="translate(137,235)"/>
<path d="M0 0 C1.98 0 3.96 0 6 0 C5.67 1.32 5.34 2.64 5 4 C3.35 4 1.7 4 0 4 C0 2.68 0 1.36 0 0 Z " fill="#181407" transform="translate(89,202)"/>
<path d="M0 0 C0.33 1.32 0.66 2.64 1 4 C3.64 4 6.28 4 9 4 C9 5.98 9 7.96 9 10 C8.67 10 8.34 10 8 10 C8 8.35 8 6.7 8 5 C5.69 5.66 3.38 6.32 1 7 C0 6 0 6 -0.0625 2.9375 C-0.041875 1.968125 -0.02125 0.99875 0 0 Z " fill="#CFA612" transform="translate(395,249)"/>
<path d="M0 0 C0.99 0.99 1.98 1.98 3 3 C2.67 3.99 2.34 4.98 2 6 C0.35 6 -1.3 6 -3 6 C-3 5.34 -3 4.68 -3 4 C-2.34 4 -1.68 4 -1 4 C-0.67 2.68 -0.34 1.36 0 0 Z " fill="#EDBA08" transform="translate(121,244)"/>
<path d="M0 0 C0.33 0 0.66 0 1 0 C1.0810206 2.10353495 1.13919907 4.20795952 1.1875 6.3125 C1.22230469 7.48425781 1.25710938 8.65601563 1.29296875 9.86328125 C1 13 1 13 -2 16 C-1.34 10.72 -0.68 5.44 0 0 Z " fill="#E0AF11" transform="translate(386,233)"/>
<path d="M0 0 C0.33 0.66 0.66 1.32 1 2 C0.01 3.485 0.01 3.485 -1 5 C-1.66 5 -2.32 5 -3 5 C-3 8.3 -3 11.6 -3 15 C-3.33 15 -3.66 15 -4 15 C-4.63019694 4.84682713 -4.63019694 4.84682713 -2 1.3125 C-1.34 0.879375 -0.68 0.44625 0 0 Z " fill="#CEA51A" transform="translate(358,249)"/>
<path d="M0 0 C0.66 0 1.32 0 2 0 C1.67 1.65 1.34 3.3 1 5 C-1.31 5.33 -3.62 5.66 -6 6 C-4 4 -2 2 0 0 Z " fill="#DEB00D" transform="translate(62,262)"/>
<path d="M0 0 C1.32 0 2.64 0 4 0 C4 1.65 4 3.3 4 5 C2.68 5 1.36 5 0 5 C0 3.35 0 1.7 0 0 Z " fill="#FDC603" transform="translate(345,236)"/>
<path d="M0 0 C-0.66 1.32 -1.32 2.64 -2 4 C-6 4 -6 4 -8 3 C-5.53387212 -0.1151089 -3.89156016 -0.31553191 0 0 Z " fill="#EBB90D" transform="translate(283,235)"/>
<path d="M0 0 C0.1875 2.875 0.1875 2.875 0 6 C-0.99 6.66 -1.98 7.32 -3 8 C-3.6875 5.6875 -3.6875 5.6875 -4 3 C-1.72413793 0 -1.72413793 0 0 0 Z " fill="#EBB90D" transform="translate(130,244)"/>
<path d="M0 0 C2.75 -0.25 2.75 -0.25 6 0 C8.375 2 8.375 2 10 4 C8.72125 3.71125 7.4425 3.4225 6.125 3.125 C5.40570313 2.96257812 4.68640625 2.80015625 3.9453125 2.6328125 C2 2 2 2 0 0 Z " fill="#DBB018" transform="translate(296,232)"/>
<path d="M0 0 C0.66 0.33 1.32 0.66 2 1 C-0.297221 2.74271938 -2.59866729 4.39911152 -5 6 C-5.66 5.34 -6.32 4.68 -7 4 C-1.7265625 0.77734375 -1.7265625 0.77734375 0 0 Z " fill="#C59C17" transform="translate(171,232)"/>
</svg>
